<svg version="1.1" id="Layer_1" xmlns="http://www.w3.org/2000/svg" xmlns:xlink="http://www.w3.org/1999/xlink" x="0px" y="0px"
	 width="10%" viewBox="0 0 345 63" enable-background="new 0 0 345 63" xml:space="preserve">
<path fill="#2A3874" opacity="1.000000" stroke="none" 
	d="
M247.000000,64.000000 
	C164.666687,64.000000 82.833382,64.000000 1.000055,64.000000 
	C1.000037,43.000031 1.000037,22.000061 1.000018,1.000069 
	C115.999939,1.000046 230.999878,1.000046 345.999878,1.000023 
	C345.999908,21.999929 345.999908,42.999859 345.999939,63.999893 
	C313.166656,64.000000 280.333344,64.000000 247.000000,64.000000 
M318.225372,25.823650 
	C318.225372,25.823650 318.159760,25.779099 318.865814,25.269382 
	C315.733826,24.682318 312.601868,24.095253 309.384338,23.492149 
	C306.860229,35.479828 304.520660,46.591133 302.159332,57.805740 
	C305.762573,57.805740 308.835754,57.805740 312.021454,57.805740 
	C313.063904,52.811558 313.958618,48.073917 315.062958,43.385658 
	C315.859283,40.004986 316.598602,36.535488 318.034088,33.414089 
	C318.704712,31.955862 320.962769,31.227665 322.501343,30.168577 
	C323.038818,31.761786 324.186829,33.430920 323.999878,34.934044 
	C323.427399,39.537243 322.212341,44.056160 321.487244,48.645779 
	C320.421356,55.392330 324.271149,59.164829 331.037811,58.204338 
	C337.990265,57.217484 339.514862,51.542709 341.256500,46.073120 
	C339.663544,46.752132 338.859680,48.169861 337.671539,49.093006 
	C336.224274,50.217476 334.453705,50.925865 332.822998,51.814224 
	C332.247833,50.091755 331.013947,48.283909 331.223969,46.663200 
	C331.798828,42.227665 333.558868,37.891060 333.712982,33.475605 
	C333.809570,30.708481 332.616791,26.606785 330.615967,25.396908 
	C328.341309,24.021450 324.519745,25.163355 321.373901,25.291805 
	C320.289246,25.336092 319.214508,25.623110 318.225372,25.823650 
M27.919744,35.721245 
	C27.385466,34.648602 26.245573,33.467445 26.415169,32.520920 
	C27.518229,26.364649 28.905773,20.259350 30.217186,14.057058 
	C20.477879,13.725314 20.479689,13.725700 18.650028,22.298588 
	C18.546066,22.785702 18.341002,23.251291 18.237854,23.738514 
	C15.845559,35.038757 13.460865,46.340611 11.033368,57.838226 
	C14.660042,57.838226 17.740541,57.838226 20.883495,57.838226 
	C22.006216,52.532299 23.138260,47.504910 24.110147,42.446743 
	C24.564198,40.083645 25.548437,39.114643 28.126595,38.424480 
	C32.016785,37.383091 36.012676,35.668640 39.176945,33.222572 
	C44.518845,29.093130 46.349331,21.313711 44.240879,15.656976 
	C42.185081,10.141509 36.814117,7.004060 29.333448,6.985417 
	C21.629580,6.966218 14.790689,9.604857 9.679212,15.206145 
	C7.300433,17.812872 5.751151,21.747589 5.193699,25.295265 
	C4.552188,29.377905 7.300378,31.076008 11.784956,30.442179 
	C9.674069,18.685774 16.707268,9.969951 28.175684,10.130130 
	C34.210739,10.214420 37.629086,13.479443 37.315346,19.465528 
	C36.969601,26.062317 34.592888,31.760298 27.919744,35.721245 
M143.816254,8.024107 
	C134.358292,11.506321 129.733154,17.100481 130.012527,24.690386 
	C130.166687,28.878685 132.068527,31.182804 136.514435,30.965193 
	C135.836639,17.442837 139.153381,11.783509 144.996368,13.593332 
	C141.854843,28.267046 138.711899,42.947464 135.461899,58.127884 
	C137.272476,58.127884 138.280426,57.980125 139.230042,58.152874 
	C143.920471,59.006107 146.200653,57.219448 146.756210,52.360569 
	C147.263855,47.920898 148.881180,43.605858 149.360764,39.165825 
	C149.899918,34.174156 151.727814,31.563707 157.154861,32.503464 
	C160.733688,33.123173 161.966522,31.263403 161.316345,27.671545 
	C158.351852,27.520475 155.413116,27.370720 152.033722,27.198505 
	C153.022598,22.546097 153.926880,18.291786 154.821182,14.084375 
	C167.006073,15.912555 168.454346,15.337627 169.953033,7.898576 
	C161.444321,7.898576 153.044235,7.898576 143.816254,8.024107 
M177.555176,46.896469 
	C179.098038,39.447624 180.640915,31.998777 182.244812,24.255232 
	C178.731888,24.255232 175.649048,24.255232 172.388855,24.255232 
	C170.698212,32.423557 168.834564,40.336544 167.469666,48.334648 
	C166.152664,56.052155 171.479523,60.566711 178.535706,57.792057 
	C180.809464,56.897953 182.649933,54.901875 184.756714,53.360085 
	C186.170349,57.564602 189.049622,58.931374 193.315308,58.260414 
	C200.267426,57.166889 202.665543,51.986752 204.412491,46.121334 
	C202.999298,46.709103 202.225739,47.970829 201.109665,48.727005 
	C199.362671,49.910645 197.384048,50.752438 195.503555,51.739037 
	C195.189316,49.937614 194.348236,48.041512 194.652023,46.351170 
	C195.965759,39.041306 197.614380,31.791624 199.193207,24.272112 
	C195.679626,24.272112 192.598160,24.272112 189.397324,24.272112 
	C188.850388,26.769388 188.390625,29.032339 187.856110,31.277494 
	C186.474747,37.079666 185.290558,42.946793 183.496292,48.619923 
	C183.051178,50.027245 180.587280,50.796078 179.051346,51.858398 
	C178.477417,50.457630 177.903488,49.056862 177.555176,46.896469 
M288.306427,52.780373 
	C289.887421,49.155613 292.047729,45.655624 292.863983,41.866142 
	C293.503082,38.898956 294.710480,37.839806 297.348511,36.909893 
	C300.302643,35.868549 302.957764,33.979149 305.743011,32.458778 
	C305.494049,32.000984 305.245087,31.543194 304.996155,31.085402 
	C301.564850,32.315163 298.133514,33.544922 294.373383,34.892532 
	C293.933563,33.047295 293.673340,31.941574 293.406281,30.837498 
	C292.037262,25.177467 289.022186,22.600660 283.401825,23.862654 
	C279.752594,24.682053 275.353180,26.432369 273.329559,29.237177 
	C270.147552,33.647537 267.876099,39.115940 266.670563,44.463566 
	C264.495941,54.109924 270.801727,60.120369 280.410156,57.931873 
	C283.109375,57.317070 285.408081,54.943718 288.306427,52.780373 
M215.258713,32.628017 
	C213.444016,36.342690 212.257812,40.600410 209.644424,43.624962 
	C206.822113,46.891296 205.974365,50.019341 207.528824,53.593182 
	C209.266571,57.588367 213.048340,58.601547 217.113190,58.462204 
	C225.948746,58.159309 231.122772,51.841293 236.586136,45.856609 
	C234.521561,46.776081 232.457001,47.695553 230.433594,48.596687 
	C229.845520,39.536491 229.280151,30.826309 228.734100,22.413542 
	C221.399734,21.409122 217.029617,23.935297 215.933456,30.998451 
	C215.883331,31.321394 215.716080,31.626158 215.258713,32.628017 
M76.473305,56.082314 
	C84.284317,62.324169 99.865372,55.465912 100.797783,47.027531 
	C97.434258,48.879314 94.080559,51.381905 90.311455,52.626812 
	C86.052086,54.033657 83.107925,51.667274 83.792458,47.283226 
	C84.674080,41.636906 86.447639,36.090088 88.304611,30.660324 
	C88.853760,29.054605 90.981705,27.988831 92.386169,26.675629 
	C92.778618,26.960266 93.171074,27.244905 93.563522,27.529545 
	C93.563522,29.708515 93.563522,31.887486 93.563522,34.141937 
	C97.447441,35.218853 98.954597,33.512341 99.234123,30.346083 
	C99.649498,25.641035 96.229286,23.026976 90.517593,23.556492 
	C77.568871,24.756941 68.828659,43.887615 76.473305,56.082314 
M243.675232,37.957878 
	C242.940002,41.705372 241.920273,45.423714 241.532669,49.206825 
	C240.862152,55.751190 244.158401,58.956684 250.628784,58.210697 
	C257.690582,57.396530 260.550354,52.229496 262.314026,46.059654 
	C261.018280,46.521324 260.243225,47.579800 259.209900,48.223740 
	C257.133514,49.517658 254.916229,50.585430 252.757111,51.746532 
	C252.498077,49.643784 251.727188,47.452591 252.072479,45.454269 
	C253.283020,38.448460 254.878036,31.509085 256.381470,24.282990 
	C252.904037,24.282990 249.836899,24.282990 246.568085,24.282990 
	C245.620834,28.724119 244.724503,32.926544 243.675232,37.957878 
M50.176193,49.471897 
	C50.327339,53.886570 51.096653,57.858776 56.610840,58.409431 
	C63.386051,59.086014 68.851593,54.576183 70.772453,46.038471 
	C69.207268,47.102467 68.203918,48.799213 66.727829,49.795673 
	C65.234589,50.803707 63.273361,51.118500 61.517132,51.736958 
	C61.161766,50.106873 60.267231,48.378956 60.542244,46.863247 
	C61.897938,39.391499 63.563583,31.975985 65.182747,24.240147 
	C61.798500,24.240147 58.720131,24.240147 55.299099,24.240147 
	C53.604488,32.470154 51.940529,40.551315 50.176193,49.471897 
M250.398621,19.407433 
	C255.484177,20.712149 259.094452,18.976822 258.620880,15.085238 
	C258.401001,13.278494 256.851349,10.677141 255.364014,10.228665 
	C253.595367,9.695371 250.024811,10.518475 249.434525,11.781651 
	C248.553299,13.667501 249.594360,16.451622 250.398621,19.407433 
M67.337646,14.003235 
	C66.506683,9.937770 63.729801,8.940969 60.242588,10.042766 
	C56.926353,11.090542 56.007408,14.074845 57.361919,16.862257 
	C58.108925,18.399487 60.552429,19.798763 62.362099,19.984571 
	C65.718452,20.329191 67.384392,18.028160 67.337646,14.003235 
z"/>
<path fill="#E7E8EB" opacity="1.000000" stroke="none" 
	d="
M28.258320,35.542137 
	C34.592888,31.760298 36.969601,26.062317 37.315346,19.465528 
	C37.629086,13.479443 34.210739,10.214420 28.175684,10.130130 
	C16.707268,9.969951 9.674069,18.685774 11.784956,30.442179 
	C7.300378,31.076008 4.552188,29.377905 5.193699,25.295265 
	C5.751151,21.747589 7.300433,17.812872 9.679212,15.206145 
	C14.790689,9.604857 21.629580,6.966218 29.333448,6.985417 
	C36.814117,7.004060 42.185081,10.141509 44.240879,15.656976 
	C46.349331,21.313711 44.518845,29.093130 39.176945,33.222572 
	C36.012676,35.668640 32.016785,37.383091 28.126595,38.424480 
	C25.548437,39.114643 24.564198,40.083645 24.110147,42.446743 
	C23.138260,47.504910 22.006216,52.532299 20.883495,57.838226 
	C17.740541,57.838226 14.660042,57.838226 11.033368,57.838226 
	C13.460865,46.340611 15.845559,35.038757 18.237854,23.738514 
	C18.341002,23.251291 18.546066,22.785702 18.650028,22.298588 
	C20.479689,13.725700 20.477879,13.725314 30.217186,14.057058 
	C28.905773,20.259350 27.518229,26.364649 26.415169,32.520920 
	C26.245573,33.467445 27.385466,34.648602 28.258320,35.542137 
z"/>
<path fill="#E8E9EB" opacity="1.000000" stroke="none" 
	d="
M144.230194,7.961341 
	C153.044235,7.898576 161.444321,7.898576 169.953033,7.898576 
	C168.454346,15.337627 167.006073,15.912555 154.821182,14.084375 
	C153.926880,18.291786 153.022598,22.546097 152.033722,27.198505 
	C155.413116,27.370720 158.351852,27.520475 161.316345,27.671545 
	C161.966522,31.263403 160.733688,33.123173 157.154861,32.503464 
	C151.727814,31.563707 149.899918,34.174156 149.360764,39.165825 
	C148.881180,43.605858 147.263855,47.920898 146.756210,52.360569 
	C146.200653,57.219448 143.920471,59.006107 139.230042,58.152874 
	C138.280426,57.980125 137.272476,58.127884 135.461899,58.127884 
	C138.711899,42.947464 141.854843,28.267046 144.996368,13.593332 
	C139.153381,11.783509 135.836639,17.442837 136.514435,30.965193 
	C132.068527,31.182804 130.166687,28.878685 130.012527,24.690386 
	C129.733154,17.100481 134.358292,11.506321 144.230194,7.961341 
z"/>
<path fill="#EBEBED" opacity="1.000000" stroke="none" 
	d="
M177.442352,47.276283 
	C177.903488,49.056862 178.477417,50.457630 179.051346,51.858398 
	C180.587280,50.796078 183.051178,50.027245 183.496292,48.619923 
	C185.290558,42.946793 186.474747,37.079666 187.856110,31.277494 
	C188.390625,29.032339 188.850388,26.769388 189.397324,24.272112 
	C192.598160,24.272112 195.679626,24.272112 199.193207,24.272112 
	C197.614380,31.791624 195.965759,39.041306 194.652023,46.351170 
	C194.348236,48.041512 195.189316,49.937614 195.503555,51.739037 
	C197.384048,50.752438 199.362671,49.910645 201.109665,48.727005 
	C202.225739,47.970829 202.999298,46.709103 204.412491,46.121334 
	C202.665543,51.986752 200.267426,57.166889 193.315308,58.260414 
	C189.049622,58.931374 186.170349,57.564602 184.756714,53.360085 
	C182.649933,54.901875 180.809464,56.897953 178.535706,57.792057 
	C171.479523,60.566711 166.152664,56.052155 167.469666,48.334648 
	C168.834564,40.336544 170.698212,32.423557 172.388855,24.255232 
	C175.649048,24.255232 178.731888,24.255232 182.244812,24.255232 
	C180.640915,31.998777 179.098038,39.447624 177.442352,47.276283 
z"/>
<path fill="#EAEBED" opacity="1.000000" stroke="none" 
	d="
M318.135223,25.799248 
	C319.214508,25.623110 320.289246,25.336092 321.373901,25.291805 
	C324.519745,25.163355 328.341309,24.021450 330.615967,25.396908 
	C332.616791,26.606785 333.809570,30.708481 333.712982,33.475605 
	C333.558868,37.891060 331.798828,42.227665 331.223969,46.663200 
	C331.013947,48.283909 332.247833,50.091755 332.822998,51.814224 
	C334.453705,50.925865 336.224274,50.217476 337.671539,49.093006 
	C338.859680,48.169861 339.663544,46.752132 341.256500,46.073120 
	C339.514862,51.542709 337.990265,57.217484 331.037811,58.204338 
	C324.271149,59.164829 320.421356,55.392330 321.487244,48.645779 
	C322.212341,44.056160 323.427399,39.537243 323.999878,34.934044 
	C324.186829,33.430920 323.038818,31.761786 322.501343,30.168583 
	C320.962769,31.227665 318.704712,31.955862 318.034088,33.414089 
	C316.598602,36.535488 315.859283,40.004986 315.062958,43.385658 
	C313.958618,48.073917 313.063904,52.811558 312.021454,57.805740 
	C308.835754,57.805740 305.762573,57.805740 302.159332,57.805740 
	C304.520660,46.591133 306.860229,35.479828 309.384338,23.492149 
	C312.601868,24.095253 315.733826,24.682318 318.662659,25.778904 
	C318.687286,26.302979 318.915070,26.317533 319.142822,26.332088 
	C318.806946,26.154474 318.471100,25.976860 318.135223,25.799248 
z"/>
<path fill="#E7E8EB" opacity="1.000000" stroke="none" 
	d="
M288.098450,53.078682 
	C285.408081,54.943718 283.109375,57.317070 280.410156,57.931873 
	C270.801727,60.120369 264.495941,54.109924 266.670563,44.463566 
	C267.876099,39.115940 270.147552,33.647537 273.329559,29.237177 
	C275.353180,26.432369 279.752594,24.682053 283.401825,23.862654 
	C289.022186,22.600660 292.037262,25.177467 293.406281,30.837498 
	C293.673340,31.941574 293.933563,33.047295 294.373383,34.892532 
	C298.133514,33.544922 301.564850,32.315163 304.996155,31.085402 
	C305.245087,31.543194 305.494049,32.000984 305.743011,32.458778 
	C302.957764,33.979149 300.302643,35.868549 297.348511,36.909893 
	C294.710480,37.839806 293.503082,38.898956 292.863983,41.866142 
	C292.047729,45.655624 289.887421,49.155613 288.098450,53.078682 
M287.181793,32.508980 
	C287.056061,31.064350 286.930328,29.619722 286.804596,28.175091 
	C285.224091,28.705643 282.984985,28.749859 282.173737,29.848455 
	C278.007782,35.489960 276.313232,41.985901 276.796173,49.003925 
	C277.027222,52.361946 279.139771,52.778095 281.685822,51.701752 
	C284.785767,50.391258 288.249664,41.016525 287.237183,37.707993 
	C286.800781,36.281776 286.908661,34.688992 287.181793,32.508980 
z"/>
<path fill="#EAEAEC" opacity="1.000000" stroke="none" 
	d="
M215.431061,32.283703 
	C215.716080,31.626158 215.883331,31.321394 215.933456,30.998451 
	C217.029617,23.935297 221.399734,21.409122 228.734100,22.413542 
	C229.280151,30.826309 229.845520,39.536491 230.433594,48.596687 
	C232.457001,47.695553 234.521561,46.776081 236.586136,45.856609 
	C231.122772,51.841293 225.948746,58.159309 217.113190,58.462204 
	C213.048340,58.601547 209.266571,57.588367 207.528824,53.593182 
	C205.974365,50.019341 206.822113,46.891296 209.644424,43.624962 
	C212.257812,40.600410 213.444016,36.342690 215.431061,32.283703 
M220.167297,43.458977 
	C219.822952,39.912991 219.478607,36.367004 219.015305,31.596096 
	C217.016083,36.069386 215.547653,39.338013 214.103088,42.617153 
	C213.977600,42.902004 213.858170,43.348976 213.990433,43.564320 
	C216.512939,47.671291 213.553375,48.884521 210.147385,50.501511 
	C211.697037,51.794540 213.245590,52.966328 214.820343,53.002701 
	C218.988220,53.098969 220.281097,50.810993 220.167297,43.458977 
z"/>
<path fill="#E7E8EB" opacity="1.000000" stroke="none" 
	d="
M76.182999,55.824982 
	C68.828659,43.887615 77.568871,24.756941 90.517593,23.556492 
	C96.229286,23.026976 99.649498,25.641035 99.234123,30.346083 
	C98.954597,33.512341 97.447441,35.218853 93.563522,34.141937 
	C93.563522,31.887486 93.563522,29.708515 93.563522,27.529545 
	C93.171074,27.244905 92.778618,26.960266 92.386169,26.675629 
	C90.981705,27.988831 88.853760,29.054605 88.304611,30.660324 
	C86.447639,36.090088 84.674080,41.636906 83.792458,47.283226 
	C83.107925,51.667274 86.052086,54.033657 90.311455,52.626812 
	C94.080559,51.381905 97.434258,48.879314 100.797783,47.027531 
	C99.865372,55.465912 84.284317,62.324169 76.182999,55.824982 
z"/>
<path fill="#EAEAED" opacity="1.000000" stroke="none" 
	d="
M243.751709,37.543427 
	C244.724503,32.926544 245.620834,28.724119 246.568085,24.282990 
	C249.836899,24.282990 252.904037,24.282990 256.381470,24.282990 
	C254.878036,31.509085 253.283020,38.448460 252.072479,45.454269 
	C251.727188,47.452591 252.498077,49.643784 252.757111,51.746529 
	C254.916229,50.585430 257.133514,49.517658 259.209900,48.223740 
	C260.243225,47.579800 261.018280,46.521324 262.314026,46.059654 
	C260.550354,52.229496 257.690582,57.396530 250.628784,58.210697 
	C244.158401,58.956684 240.862152,55.751190 241.532669,49.206825 
	C241.920273,45.423714 242.940002,41.705372 243.751709,37.543427 
z"/>
<path fill="#EAEBED" opacity="1.000000" stroke="none" 
	d="
M50.226379,49.052185 
	C51.940529,40.551315 53.604488,32.470154 55.299099,24.240147 
	C58.720131,24.240147 61.798500,24.240147 65.182747,24.240147 
	C63.563583,31.975985 61.897938,39.391499 60.542244,46.863247 
	C60.267231,48.378956 61.161766,50.106873 61.517132,51.736961 
	C63.273361,51.118500 65.234589,50.803707 66.727829,49.795673 
	C68.203918,48.799213 69.207268,47.102467 70.772453,46.038471 
	C68.851593,54.576183 63.386051,59.086014 56.610840,58.409431 
	C51.096653,57.858776 50.327339,53.886570 50.226379,49.052185 
z"/>
<path fill="#E4E5E9" opacity="1.000000" stroke="none" 
	d="
M250.108124,19.130512 
	C249.594360,16.451622 248.553299,13.667501 249.434525,11.781651 
	C250.024811,10.518475 253.595367,9.695371 255.364014,10.228665 
	C256.851349,10.677141 258.401001,13.278494 258.620880,15.085238 
	C259.094452,18.976822 255.484177,20.712149 250.108124,19.130512 
z"/>
<path fill="#E8E8EB" opacity="1.000000" stroke="none" 
	d="
M67.440346,14.357650 
	C67.384392,18.028160 65.718452,20.329191 62.362099,19.984571 
	C60.552429,19.798763 58.108925,18.399487 57.361919,16.862257 
	C56.007408,14.074845 56.926353,11.090542 60.242588,10.042766 
	C63.729801,8.940969 66.506683,9.937770 67.440346,14.357650 
z"/>
<path fill="#2A3874" opacity="1.000000" stroke="none" 
	d="
M318.180298,25.811447 
	C318.471100,25.976860 318.806946,26.154474 319.142822,26.332088 
	C318.915070,26.317533 318.687286,26.302979 318.309631,26.033760 
	C318.159760,25.779099 318.225372,25.823650 318.180298,25.811447 
z"/>
<path fill="#2C3A76" opacity="1.000000" stroke="none" 
	d="
M286.975525,32.840431 
	C286.908661,34.688992 286.800781,36.281776 287.237183,37.707993 
	C288.249664,41.016525 284.785767,50.391258 281.685822,51.701752 
	C279.139771,52.778095 277.027222,52.361946 276.796173,49.003925 
	C276.313232,41.985901 278.007782,35.489960 282.173737,29.848455 
	C282.984985,28.749859 285.224091,28.705643 286.804596,28.175093 
	C286.930328,29.619722 287.056061,31.064350 286.975525,32.840431 
z"/>
<path fill="#35427B" opacity="1.000000" stroke="none" 
	d="
M220.176666,43.921883 
	C220.281097,50.810993 218.988220,53.098969 214.820343,53.002701 
	C213.245590,52.966328 211.697037,51.794540 210.147385,50.501511 
	C213.553375,48.884521 216.512939,47.671291 213.990433,43.564320 
	C213.858170,43.348976 213.977600,42.902004 214.103088,42.617153 
	C215.547653,39.338013 217.016083,36.069386 219.015305,31.596096 
	C219.478607,36.367004 219.822952,39.912991 220.176666,43.921883 
z"/>
</svg>